<?xml version="1.0" encoding="iso-8859-1"?>
<!-- Generator: Adobe Illustrator 19.0.0, SVG Export Plug-In . SVG Version: 6.00 Build 0)  -->
<svg version="1.1" id="Capa_1" xmlns="http://www.w3.org/2000/svg" xmlns:xlink="http://www.w3.org/1999/xlink" x="0px" y="0px"
	 viewBox="0 0 512.093 512.093" style="enable-background:new 0 0 512.093 512.093;" xml:space="preserve">
<g>
	<g>
		<g>
			<path d="M336.047,0h-160c-97.202,0-176,78.798-176,176v64c0,97.202,78.798,176,176,176h16v80
				c-0.051,8.836,7.07,16.041,15.907,16.093c4.299,0.025,8.426-1.681,11.453-4.733l91.2-91.36h25.44c97.202,0,176-78.798,176-176
				v-64C512.047,78.798,433.249,0,336.047,0z M480.047,240c0,79.529-64.471,144-144,144h-32c-4.253-0.025-8.34,1.645-11.36,4.64
				l-68.64,68.8V400c0-8.837-7.163-16-16-16h-32c-79.529,0-144-64.471-144-144v-64c0-79.529,64.471-144,144-144h160
				c79.529,0,144,64.471,144,144V240z"/>
			<path d="M336.047,256h-160v-16h-32v16c0,17.673,14.327,32,32,32h160c17.673,0,32-14.327,32-32v-16h-32V256z"/>
			<rect x="192.047" y="144" width="32" height="32"/>
			<rect x="288.047" y="144" width="32" height="32"/>
		</g>
	</g>
</g>
<g>
</g>
<g>
</g>
<g>
</g>
<g>
</g>
<g>
</g>
<g>
</g>
<g>
</g>
<g>
</g>
<g>
</g>
<g>
</g>
<g>
</g>
<g>
</g>
<g>
</g>
<g>
</g>
<g>
</g>
</svg>
